<svg width="49" height="48" viewBox="0 0 49 48" fill="none" xmlns="http://www.w3.org/2000/svg">
<path d="M44.2336 34.7138C43.5063 37.0449 42.3594 39.3761 40.7929 41.7072C38.3871 45.3624 35.9907 47.19 33.6036 47.19C32.6898 47.19 31.3844 46.8916 29.6873 46.2949C28.0835 45.6981 26.6755 45.3997 25.4633 45.3997C24.3257 45.3997 23.0016 45.7074 21.4911 46.3228C19.9805 46.9569 18.7496 47.2739 17.7985 47.2739C14.9639 47.2739 12.1572 44.8589 9.37848 40.0288C6.63707 35.1614 5.26636 30.4711 5.26636 25.958C5.26636 21.706 6.32003 18.2187 8.42738 15.4959C10.5347 12.8104 13.1829 11.4677 16.3719 11.4677C17.7146 11.4677 19.3651 11.7474 21.3232 12.3069C23.2627 12.8664 24.5495 13.1461 25.1836 13.1461C26.0228 13.1461 27.3562 12.8291 29.1838 12.195C31.086 11.5609 32.6992 11.2439 34.0233 11.2439C36.2425 11.2439 38.2286 11.85 39.9816 13.0622C40.9514 13.7336 41.9211 14.666 42.8909 15.8596C41.4176 17.1091 40.3546 18.2093 39.7019 19.1604C38.4897 20.9135 37.8836 22.8436 37.8836 24.951C37.8836 27.2635 38.527 29.3428 39.8138 31.1891C41.1006 33.0354 42.5739 34.2103 44.2336 34.7138ZM33.7155 1.90072C33.7155 3.03832 33.4451 4.30645 32.9043 5.70514C32.3448 7.10382 31.4777 8.3906 30.3028 9.5655C29.2957 10.5725 28.2887 11.2439 27.2816 11.5796C26.5916 11.7847 25.6218 11.9433 24.3723 12.0551C24.4283 9.27643 25.1556 6.88003 26.5543 4.86593C27.9343 2.87047 30.2655 1.49044 33.5477 0.72583C33.5663 0.781777 33.5897 0.884347 33.6176 1.03354C33.6456 1.18273 33.6689 1.2853 33.6876 1.34125C33.6876 1.41585 33.6922 1.50909 33.7016 1.62099C33.7109 1.73288 33.7155 1.82613 33.7155 1.90072Z" fill="#FCFCFA"/>
</svg>
