<svg width="32" height="32" viewBox="0 0 32 32" fill="none" xmlns="http://www.w3.org/2000/svg">
<rect width="32" height="32" rx="16" fill="#C3EB4D"/>
<path fill-rule="evenodd" clip-rule="evenodd" d="M12.9578 8.71897C13.2452 8.6188 13.5602 8.76545 13.6686 9.04989L14.3877 10.9376H16.6124L17.3315 9.04989C17.4399 8.76545 17.7548 8.6188 18.0423 8.71897L21.9326 10.0748L22.0212 10.3341C22.8487 12.7586 23.3015 14.8745 23.4764 16.5754C23.6493 18.2547 23.5582 19.5928 23.2374 20.4218C23.2319 20.4361 23.2258 20.4501 23.2191 20.4639C22.9267 21.0683 22.485 21.7574 21.937 22.3043C21.3985 22.8419 20.6849 23.3126 19.856 23.3126H19.5834L17.6216 20.8281C18.218 20.6981 18.8246 20.5139 19.4498 20.2757L19.0493 19.2245C16.5533 20.1753 14.4458 20.1753 11.9498 19.2245L11.5493 20.2757C12.1748 20.5141 12.7817 20.6982 13.3783 20.8283L11.4166 23.3126H11.1441C10.3152 23.3126 9.60156 22.8419 9.06306 22.3043C8.51511 21.7574 8.07343 21.0683 7.78095 20.4639C7.77429 20.4501 7.7682 20.4361 7.76268 20.4218C7.44186 19.5928 7.35081 18.2547 7.52363 16.5754C7.69866 14.8745 8.15141 12.7586 8.97891 10.3341L9.06741 10.0748L12.9578 8.71897ZM12.4944 14.125C11.8761 14.125 11.375 14.6287 11.375 15.25C11.375 15.8713 11.8761 16.375 12.4944 16.375H12.5057C13.1238 16.375 13.625 15.8713 13.625 15.25C13.625 14.6287 13.1238 14.125 12.5057 14.125H12.4944ZM18.4943 14.125C17.8762 14.125 17.375 14.6287 17.375 15.25C17.375 15.8713 17.8762 16.375 18.4943 16.375H18.5057C19.1239 16.375 19.625 15.8713 19.625 15.25C19.625 14.6287 19.1239 14.125 18.5057 14.125H18.4943Z" fill="#141414"/>
</svg>
