<svg width="32" height="32" viewBox="0 0 32 32" fill="none" xmlns="http://www.w3.org/2000/svg">
<rect width="32" height="32" rx="16" fill="#C3EB4D"/>
<path fill-rule="evenodd" clip-rule="evenodd" d="M10.1553 23.0232C9.01315 22.4687 8.10213 21.4581 7.4375 20.0749L8.7895 19.4253C9.34757 20.5867 10.0468 21.3031 10.8104 21.6737C11.5688 22.042 12.4769 22.111 13.539 21.8179L13.938 23.2639C12.5957 23.6342 11.3026 23.5801 10.1553 23.0232Z" fill="#141414"/>
<path d="M11.2949 7.9375H11.2957H11.2967L11.2991 7.93752L11.3055 7.93757L11.3253 7.9379C11.3414 7.93825 11.3635 7.93892 11.3909 7.94017C11.4457 7.94267 11.5223 7.94753 11.6169 7.95693C11.8055 7.97571 12.0679 8.01288 12.3724 8.08671C12.9123 8.21767 13.6042 8.46886 14.2498 8.95473C14.8117 8.82214 15.6075 8.66738 16.625 8.66736C17.6424 8.66734 18.4383 8.82215 19.0002 8.95475C19.6458 8.46887 20.3376 8.21768 20.8776 8.08671C21.1821 8.01288 21.4444 7.97571 21.6331 7.95693C21.7277 7.94753 21.8043 7.94267 21.8591 7.94017C21.8865 7.93892 21.9085 7.93825 21.9247 7.9379L21.9444 7.93757L21.9509 7.93752L21.9533 7.9375H21.9543C21.9543 7.9375 21.9551 7.9375 21.9551 8.5V7.9375H22.3396L22.4792 8.29578C22.6737 8.79483 22.7439 9.40191 22.7449 9.97131C22.7457 10.4507 22.6974 10.9364 22.613 11.36C22.8414 11.7213 23.0546 12.1494 23.2202 12.5889C23.4177 13.113 23.5625 13.693 23.5625 14.2214C23.5625 16.038 22.9539 17.321 21.9912 18.2261C21.2599 18.9137 20.3523 19.3564 19.4344 19.6708C19.6311 19.9669 19.8125 20.3582 19.8125 20.8713V24.0625H13.4375V20.8713C13.4375 20.3582 13.619 19.9669 13.8156 19.6708C12.8976 19.3564 11.9901 18.9137 11.2588 18.2261C10.2961 17.321 9.6875 16.038 9.6875 14.2214C9.6875 13.693 9.83232 13.113 10.0298 12.5889C10.1954 12.1494 10.4086 11.7212 10.637 11.36C10.5526 10.9364 10.5042 10.4507 10.5051 9.97131C10.506 9.40191 10.5764 8.79483 10.7708 8.29578L10.9104 7.9375H11.2949Z" fill="#141414"/>
</svg>
