<svg width="109" height="109" viewBox="0 0 109 109" fill="none" xmlns="http://www.w3.org/2000/svg">
<g filter="url(#filter0_di_240_514)">
<rect x="14.2373" y="7.10156" width="81.3559" height="81.3559" rx="17.8062" fill="url(#paint0_linear_240_514)" shape-rendering="crispEdges"/>
<path d="M47.4978 47.7794C47.4978 43.682 50.8186 40.3595 54.9161 40.3595C59.0137 40.3595 62.3363 43.682 62.3363 47.7794C62.3363 51.8767 59.0137 55.1992 54.9161 55.1992C50.8186 55.1992 47.4978 51.8767 47.4978 47.7794ZM43.4866 47.7794C43.4866 54.0917 48.6036 59.2084 54.9161 59.2084C61.2287 59.2084 66.3457 54.0917 66.3457 47.7794C66.3457 41.4671 61.2287 36.3503 54.9161 36.3503C48.6036 36.3503 43.4866 41.4671 43.4866 47.7794ZM64.1271 35.8971C64.1269 36.4254 64.2833 36.9418 64.5767 37.3812C64.87 37.8205 65.287 38.163 65.775 38.3654C66.263 38.5677 66.8 38.6208 67.3182 38.518C67.8363 38.4151 68.3124 38.1609 68.6861 37.7876C69.0598 37.4142 69.3144 36.9384 69.4176 36.4203C69.5209 35.9022 69.4682 35.3652 69.2663 34.877C69.0643 34.3889 68.7221 33.9716 68.283 33.678C67.8438 33.3843 67.3275 33.2275 66.7992 33.2272H66.7981C66.09 33.2276 65.411 33.5089 64.9102 34.0095C64.4094 34.5101 64.1277 35.189 64.1271 35.8971ZM45.9236 65.8966C43.7535 65.7978 42.574 65.4363 41.7901 65.131C40.7509 64.7264 40.0094 64.2446 39.2298 63.4661C38.4502 62.6876 37.9677 61.9469 37.5649 60.9077C37.2593 60.1242 36.8978 58.9444 36.7992 56.7743C36.6913 54.4282 36.6697 53.7234 36.6697 47.7795C36.6697 41.8356 36.6931 41.1328 36.7992 38.7847C36.898 36.6147 37.2622 35.4372 37.5649 34.6514C37.9695 33.6122 38.4513 32.8708 39.2298 32.0912C40.0083 31.3116 40.7491 30.8291 41.7901 30.4263C42.5736 30.1208 43.7535 29.7593 45.9236 29.6607C48.2699 29.5528 48.9747 29.5312 54.9161 29.5312C60.8576 29.5312 61.5631 29.5545 63.9113 29.6607C66.0814 29.7595 67.259 30.1236 68.0448 30.4263C69.084 30.8291 69.8255 31.3127 70.6051 32.0912C71.3847 32.8697 71.8654 33.6122 72.27 34.6514C72.5756 35.4349 72.9371 36.6147 73.0357 38.7847C73.1436 41.1328 73.1652 41.8356 73.1652 47.7795C73.1652 53.7234 73.1436 54.4262 73.0357 56.7743C72.9369 58.9444 72.5736 60.1239 72.27 60.9077C71.8654 61.9469 71.3836 62.6883 70.6051 63.4661C69.8266 64.2439 69.084 64.7264 68.0448 65.131C67.2613 65.4365 66.0814 65.798 63.9113 65.8966C61.565 66.0045 60.8602 66.0261 54.9161 66.0261C48.972 66.0261 48.2691 66.0045 45.9236 65.8966ZM45.7393 25.6564C43.3698 25.7643 41.7506 26.14 40.3365 26.6902C38.8721 27.2584 37.6324 28.0207 36.3935 29.2575C35.1547 30.4943 34.3944 31.736 33.8261 33.2004C33.2759 34.6152 32.9002 36.2335 32.7923 38.6029C32.6826 40.9761 32.6575 41.7349 32.6575 47.7794C32.6575 53.8238 32.6826 54.5826 32.7923 56.9558C32.9002 59.3254 33.2759 60.9435 33.8261 62.3584C34.3944 63.8219 35.1549 65.0649 36.3935 66.3012C37.6322 67.5375 38.8721 68.2987 40.3365 68.8685C41.7532 69.4187 43.3698 69.7944 45.7393 69.9023C48.1139 70.0102 48.8714 70.0371 54.9161 70.0371C60.9608 70.0371 61.7196 70.012 64.0929 69.9023C66.4627 69.7944 68.0808 69.4187 69.4957 68.8685C70.9593 68.2987 72.1999 67.538 73.4387 66.3012C74.6775 65.0644 75.4363 63.8219 76.0061 62.3584C76.5563 60.9435 76.9338 59.3253 77.04 56.9558C77.1479 54.5808 77.173 53.8238 77.173 47.7794C77.173 41.7349 77.1479 40.9761 77.04 38.6029C76.932 36.2333 76.5563 34.6143 76.0061 33.2004C75.4363 31.7369 74.6756 30.4963 73.4387 29.2575C72.2018 28.0187 70.9593 27.2584 69.4975 26.6902C68.0808 26.14 66.4625 25.7625 64.0947 25.6564C61.7214 25.5485 60.9626 25.5216 54.9179 25.5216C48.8732 25.5216 48.1139 25.5467 45.7393 25.6564Z" fill="white"/>
</g>
<defs>
<filter id="filter0_di_240_514" x="0.882654" y="0.424237" width="108.065" height="108.065" filterUnits="userSpaceOnUse" color-interpolation-filters="sRGB">
<feFlood flood-opacity="0" result="BackgroundImageFix"/>
<feColorMatrix in="SourceAlpha" type="matrix" values="0 0 0 0 0 0 0 0 0 0 0 0 0 0 0 0 0 0 127 0" result="hardAlpha"/>
<feOffset dy="6.67733"/>
<feGaussianBlur stdDeviation="6.67733"/>
<feComposite in2="hardAlpha" operator="out"/>
<feColorMatrix type="matrix" values="0 0 0 0 0.866667 0 0 0 0 0.164706 0 0 0 0 0.482353 0 0 0 0.24 0"/>
<feBlend mode="normal" in2="BackgroundImageFix" result="effect1_dropShadow_240_514"/>
<feBlend mode="normal" in="SourceGraphic" in2="effect1_dropShadow_240_514" result="shape"/>
<feColorMatrix in="SourceAlpha" type="matrix" values="0 0 0 0 0 0 0 0 0 0 0 0 0 0 0 0 0 0 127 0" result="hardAlpha"/>
<feOffset dy="2.22578"/>
<feGaussianBlur stdDeviation="1.11289"/>
<feComposite in2="hardAlpha" operator="arithmetic" k2="-1" k3="1"/>
<feColorMatrix type="matrix" values="0 0 0 0 1 0 0 0 0 1 0 0 0 0 1 0 0 0 0.5 0"/>
<feBlend mode="normal" in2="shape" result="effect2_innerShadow_240_514"/>
</filter>
<linearGradient id="paint0_linear_240_514" x1="14.4446" y1="7.21677" x2="95.6852" y2="88.3278" gradientUnits="userSpaceOnUse">
<stop stop-color="#F58529"/>
<stop offset="0.332641" stop-color="#DD2A7B"/>
<stop offset="0.697027" stop-color="#8134AF"/>
<stop offset="1" stop-color="#515BD4"/>
</linearGradient>
</defs>
</svg>
