<svg width="49" height="48" viewBox="0 0 49 48" fill="none" xmlns="http://www.w3.org/2000/svg">
<path d="M2.75 44.1771V3.82495C2.75027 3.73741 2.77656 3.65189 2.82556 3.57912C2.87457 3.50636 2.94411 3.44958 3.02547 3.41592C3.10683 3.38226 3.19638 3.3732 3.2829 3.38989C3.36942 3.40658 3.44905 3.44827 3.51181 3.50974L24.6636 24L3.51181 44.4923C3.44905 44.5538 3.36942 44.5955 3.2829 44.6122C3.19638 44.6289 3.10683 44.6198 3.02547 44.5861C2.94411 44.5525 2.87457 44.4957 2.82556 44.4229C2.77656 44.3502 2.75027 44.2646 2.75 44.1771ZM33.5324 32.4195L7.01075 46.934L6.99421 46.9432C6.53733 47.1896 6.10319 46.5756 6.47738 46.2183L27.2674 26.4714L33.5324 32.4195ZM6.47945 1.78168C6.10319 1.42436 6.53733 0.810352 6.99628 1.05678L7.01281 1.06602L33.5324 15.5805L27.2674 21.5306L6.47945 1.78168ZM44.239 26.5669L36.8329 30.6186L29.8691 24L36.8329 17.3845L44.239 21.4331C46.2537 22.5389 46.2537 25.4611 44.239 26.5669Z" fill="#FCFCFA"/>
</svg>
