<svg width="32" height="32" viewBox="0 0 32 32" fill="none" xmlns="http://www.w3.org/2000/svg">
<rect width="32" height="32" rx="16" fill="#C3EB4D"/>
<path d="M15.5 9.4375C15.1894 9.4375 14.9375 9.68934 14.9375 10V13.75H16.0625V10.5625H18.7651C19.01 11.4282 19.8059 12.0625 20.75 12.0625C21.8891 12.0625 22.8125 11.1391 22.8125 10C22.8125 8.86091 21.8891 7.9375 20.75 7.9375C19.8059 7.9375 19.01 8.57181 18.7651 9.4375H15.5Z" fill="#141414"/>
<path fill-rule="evenodd" clip-rule="evenodd" d="M11.3918 14.1204C11.0008 13.5566 10.3458 13.1875 9.60536 13.1875C8.41317 13.1875 7.4375 14.1462 7.4375 15.3401C7.4375 16.1106 7.84495 16.7836 8.45218 17.1631C8.28076 17.6244 8.1875 18.1142 8.1875 18.625C8.1875 20.1972 9.07093 21.57 10.3977 22.5282C11.7252 23.4869 13.5309 24.0625 15.5 24.0625C17.4691 24.0625 19.2748 23.4869 20.6023 22.5282C21.9291 21.57 22.8125 20.1972 22.8125 18.625C22.8125 18.1142 22.7193 17.6244 22.5478 17.1631C23.155 16.7836 23.5625 16.1106 23.5625 15.3401C23.5625 14.1462 22.5868 13.1875 21.3946 13.1875C20.6542 13.1875 19.9993 13.5566 19.6082 14.1204C18.4306 13.5276 17.0136 13.1875 15.5 13.1875C13.9864 13.1875 12.5694 13.5276 11.3918 14.1204ZM15.5001 19.9374C14.6537 19.9374 13.8673 19.6452 13.2208 19.1414L12.5293 20.0287C13.3605 20.6765 14.3872 21.0624 15.5001 21.0624C16.6129 21.0624 17.6397 20.6765 18.4708 20.0287L17.7793 19.1414C17.1327 19.6452 16.3464 19.9374 15.5001 19.9374ZM14.0058 16.75C14.0058 17.1642 13.6701 17.5 13.2559 17.5H13.2491C12.8349 17.5 12.4991 17.1642 12.4991 16.75C12.4991 16.3358 12.8349 16 13.2491 16H13.2559C13.6701 16 14.0058 16.3358 14.0058 16.75ZM17.7558 17.5C18.1701 17.5 18.5058 17.1642 18.5058 16.75C18.5058 16.3358 18.1701 16 17.7558 16H17.7491C17.3349 16 16.9991 16.3358 16.9991 16.75C16.9991 17.1642 17.3349 17.5 17.7491 17.5H17.7558Z" fill="#141414"/>
</svg>
