<svg width="24" height="24" viewBox="0 0 24 24" fill="none" xmlns="http://www.w3.org/2000/svg">
<path d="M11.5 3C16.4705 3 20.5 7.02944 20.5 12C20.5 16.9705 16.4705 21 11.5 21C6.52944 21 2.5 16.9705 2.5 12C2.5 7.02944 6.52944 3 11.5 3ZM15.7588 8.04102C15.5725 7.70038 15.1598 7.56136 14.8096 7.70898L14.7402 7.74219C13.1289 8.62345 11.7846 10.3333 10.8721 11.7305C10.4874 12.3195 10.1677 12.8736 9.92383 13.3203C9.66701 13.0566 9.4058 12.8303 9.17578 12.6484C8.93036 12.4544 8.70881 12.3008 8.54785 12.1953C8.4674 12.1426 8.40076 12.101 8.35352 12.0723C8.3301 12.058 8.3106 12.0462 8.29688 12.0381C8.29037 12.0343 8.28438 12.0307 8.28027 12.0283C8.27852 12.0273 8.27664 12.0261 8.27539 12.0254L8.27344 12.0244H8.27246L7.97168 12.5508L8.27148 12.0234C7.91182 11.8187 7.45417 11.9442 7.24902 12.3037C7.04387 12.6634 7.16872 13.1219 7.52832 13.3271C7.52973 13.3279 7.53283 13.3291 7.53613 13.3311C7.54388 13.3356 7.55739 13.3433 7.57422 13.3535C7.60851 13.3744 7.66038 13.4075 7.72559 13.4502C7.85704 13.5363 8.04112 13.6639 8.24512 13.8252C8.6631 14.1557 9.12406 14.5953 9.41699 15.085C9.56003 15.3238 9.82356 15.4645 10.1016 15.4492C10.3794 15.4337 10.6263 15.2657 10.7422 15.0127L10.7471 15.0029C10.7506 14.9953 10.7561 14.9828 10.7637 14.9668C10.7788 14.9348 10.8024 14.8868 10.833 14.8242C10.8946 14.6983 10.9859 14.5141 11.1055 14.2881C11.3451 13.8354 11.6934 13.2161 12.1279 12.5508C12.9599 11.2768 14.046 9.93204 15.2236 9.19727L15.46 9.05859C15.8229 8.85994 15.9568 8.40421 15.7588 8.04102Z" fill="#FCFCFA"/>
</svg>
