<svg width="174" height="174" viewBox="0 0 174 174" fill="none" xmlns="http://www.w3.org/2000/svg">
<g filter="url(#filter0_i_240_528)">
<rect x="0.078125" y="0.94873" width="173.158" height="172.881" rx="40.064" fill="#C3EB4D"/>
<path d="M31.7185 75.6387C30.0566 75.6387 28.5609 75.3538 27.2313 74.784C25.9018 74.1905 24.8572 73.3595 24.0974 72.2911C23.3377 71.2228 22.9578 69.9763 22.9578 68.5518H27.3026C27.3975 69.6202 27.813 70.4986 28.549 71.1871C29.3087 71.8756 30.3652 72.2199 31.7185 72.2199C33.1193 72.2199 34.2114 71.8875 34.9948 71.2228C35.7783 70.5342 36.17 69.6558 36.17 68.5874C36.17 67.7565 35.9208 67.0798 35.4222 66.5575C34.9474 66.0352 34.3419 65.6316 33.606 65.3467C32.8937 65.0618 31.8966 64.7532 30.6145 64.4208C29.0001 63.9934 27.6824 63.5661 26.6615 63.1387C25.6644 62.6876 24.8097 61.9991 24.0974 61.0732C23.3852 60.1473 23.0291 58.9127 23.0291 57.3695C23.0291 55.945 23.3852 54.6986 24.0974 53.6302C24.8097 52.5619 25.8068 51.7428 27.0889 51.173C28.3709 50.6032 29.8548 50.3183 31.5404 50.3183C33.9383 50.3183 35.897 50.9237 37.4165 52.1345C38.9597 53.3216 39.8144 54.9598 39.9806 57.049H35.4934C35.4222 56.1468 34.9948 55.3752 34.2114 54.7342C33.4279 54.0932 32.3951 53.7727 31.1131 53.7727C29.9497 53.7727 29.0001 54.0694 28.2641 54.663C27.5281 55.2565 27.1601 56.1112 27.1601 57.2271C27.1601 57.9868 27.3857 58.616 27.8367 59.1145C28.3116 59.5894 28.9051 59.9692 29.6174 60.2541C30.3296 60.539 31.303 60.8477 32.5376 61.1801C34.1758 61.6311 35.5053 62.0822 36.5262 62.5333C37.5708 62.9844 38.4492 63.6848 39.1615 64.6345C39.8975 65.5604 40.2655 66.8068 40.2655 68.3738C40.2655 69.6321 39.9212 70.8191 39.2327 71.935C38.5679 73.0509 37.5827 73.953 36.2769 74.6415C34.9948 75.3063 33.4754 75.6387 31.7185 75.6387ZM49.7923 59.0789V69.9407C49.7923 70.6767 49.9585 71.2109 50.2909 71.5433C50.647 71.8519 51.2406 72.0062 52.0715 72.0062H54.5644V75.3894H51.3593C49.5312 75.3894 48.1304 74.9621 47.157 74.1074C46.1836 73.2527 45.6969 71.8638 45.6969 69.9407V59.0789H43.3821V55.767H45.6969V50.8881H49.7923V55.767H54.5644V59.0789H49.7923ZM62.366 58.616C62.9596 57.6188 63.743 56.8472 64.7164 56.3012C65.7136 55.7314 66.8888 55.4465 68.2421 55.4465V59.6487H67.2093C65.6186 59.6487 64.4078 60.0523 63.5768 60.8595C62.7696 61.6668 62.366 63.0675 62.366 65.0618V75.3894H58.3062V55.767H62.366V58.616ZM89.9581 65.0974C89.9581 65.8334 89.9106 66.4982 89.8157 67.0917H74.8229C74.9416 68.6587 75.5232 69.917 76.5679 70.8666C77.6125 71.8163 78.8945 72.2911 80.414 72.2911C82.5982 72.2911 84.1414 71.3771 85.0436 69.549H89.4239C88.8304 71.3533 87.7502 72.8372 86.1832 74.0005C84.64 75.1401 82.7169 75.7099 80.414 75.7099C78.5384 75.7099 76.8528 75.2944 75.357 74.4635C73.8851 73.6088 72.7217 72.4217 71.867 70.9022C71.0361 69.359 70.6206 67.5784 70.6206 65.5604C70.6206 63.5423 71.0242 61.7736 71.8314 60.2541C72.6624 58.7109 73.8138 57.5238 75.2858 56.6929C76.7815 55.8619 78.4909 55.4465 80.414 55.4465C82.2658 55.4465 83.9159 55.8501 85.3641 56.6573C86.8124 57.4645 87.9401 58.6041 88.7473 60.0761C89.5545 61.5243 89.9581 63.1981 89.9581 65.0974ZM85.7203 63.8154C85.6965 62.3197 85.1623 61.1207 84.1177 60.2185C83.0731 59.3163 81.7791 58.8653 80.2359 58.8653C78.8352 58.8653 77.6362 59.3163 76.6391 60.2185C75.6419 61.097 75.0484 62.2959 74.8585 63.8154H85.7203ZM92.6001 65.4892C92.6001 63.5186 93.0037 61.7736 93.8109 60.2541C94.6419 58.7347 95.7578 57.5595 97.1585 56.7285C98.583 55.8738 100.15 55.4465 101.859 55.4465C103.403 55.4465 104.744 55.7551 105.884 56.3724C107.047 56.9659 107.973 57.7138 108.661 58.616V55.767H112.757V75.3894H108.661V72.4692C107.973 73.3951 107.035 74.1667 105.848 74.784C104.661 75.4013 103.308 75.7099 101.788 75.7099C100.102 75.7099 98.5593 75.2826 97.1585 74.4279C95.7578 73.5494 94.6419 72.3386 93.8109 70.7954C93.0037 69.2285 92.6001 67.4597 92.6001 65.4892ZM108.661 65.5604C108.661 64.2071 108.376 63.0319 107.807 62.0348C107.261 61.0376 106.536 60.2779 105.634 59.7556C104.732 59.2332 103.759 58.9721 102.714 58.9721C101.669 58.9721 100.696 59.2332 99.7938 59.7556C98.8916 60.2541 98.1557 61.002 97.5859 61.9991C97.0398 62.9725 96.7668 64.1359 96.7668 65.4892C96.7668 66.8424 97.0398 68.0295 97.5859 69.0504C98.1557 70.0713 98.8916 70.8548 99.7938 71.4008C100.72 71.9231 101.693 72.1843 102.714 72.1843C103.759 72.1843 104.732 71.9231 105.634 71.4008C106.536 70.8785 107.261 70.1188 107.807 69.1216C108.376 68.1007 108.661 66.9137 108.661 65.5604ZM141.843 55.4465C143.386 55.4465 144.763 55.767 145.974 56.408C147.208 57.049 148.17 57.9987 148.858 59.257C149.57 60.5153 149.927 62.0348 149.927 63.8154V75.3894H145.902V64.4208C145.902 62.6639 145.463 61.3225 144.585 60.3966C143.706 59.4469 142.507 58.9721 140.988 58.9721C139.468 58.9721 138.258 59.4469 137.355 60.3966C136.477 61.3225 136.038 62.6639 136.038 64.4208V75.3894H132.014V64.4208C132.014 62.6639 131.574 61.3225 130.696 60.3966C129.817 59.4469 128.619 58.9721 127.099 58.9721C125.58 58.9721 124.369 59.4469 123.467 60.3966C122.588 61.3225 122.149 62.6639 122.149 64.4208V75.3894H118.089V55.767H122.149V58.0106C122.814 57.2033 123.657 56.5742 124.677 56.1231C125.698 55.672 126.79 55.4465 127.954 55.4465C129.521 55.4465 130.921 55.7788 132.156 56.4436C133.391 57.1084 134.34 58.0699 135.005 59.3282C135.599 58.1411 136.524 57.2033 137.783 56.5148C139.041 55.8026 140.394 55.4465 141.843 55.4465ZM57.4891 99.3895L48.6216 124.389H41.0005L32.133 99.3895H38.6145L44.8111 118.264L51.0432 99.3895H57.4891ZM66.124 104.268V109.325H74.2792V114.026H66.124V119.511H75.3476V124.389H60.0342V99.3895H75.3476V104.268H66.124ZM92.0503 124.389L86.8509 114.952H85.3908V124.389H79.3011V99.3895H89.5219C91.4924 99.3895 93.1662 99.7338 94.5432 100.422C95.944 101.111 96.9886 102.06 97.6771 103.271C98.3656 104.458 98.7099 105.788 98.7099 107.26C98.7099 108.922 98.235 110.406 97.2854 111.711C96.3594 113.017 94.9824 113.943 93.1543 114.489L98.9235 124.389H92.0503ZM85.3908 110.643H89.1657C90.2816 110.643 91.1126 110.37 91.6586 109.824C92.2284 109.278 92.5133 108.506 92.5133 107.509C92.5133 106.559 92.2284 105.812 91.6586 105.266C91.1126 104.719 90.2816 104.446 89.1657 104.446H85.3908V110.643ZM111.578 124.639C109.75 124.639 108.112 124.342 106.664 123.748C105.215 123.155 104.052 122.276 103.174 121.113C102.319 119.95 101.868 118.549 101.82 116.911H108.302C108.397 117.837 108.717 118.549 109.263 119.048C109.809 119.522 110.522 119.76 111.4 119.76C112.302 119.76 113.015 119.558 113.537 119.154C114.059 118.727 114.32 118.145 114.32 117.409C114.32 116.792 114.107 116.282 113.679 115.878C113.276 115.474 112.765 115.142 112.148 114.881C111.554 114.62 110.7 114.323 109.584 113.991C107.969 113.492 106.652 112.993 105.631 112.495C104.61 111.996 103.732 111.26 102.996 110.287C102.26 109.313 101.892 108.043 101.892 106.476C101.892 104.15 102.734 102.333 104.42 101.028C106.106 99.6981 108.302 99.0334 111.008 99.0334C113.762 99.0334 115.982 99.6981 117.668 101.028C119.354 102.333 120.256 104.162 120.374 106.512H113.786C113.739 105.705 113.442 105.076 112.896 104.625C112.35 104.15 111.649 103.912 110.795 103.912C110.059 103.912 109.465 104.114 109.014 104.518C108.563 104.898 108.337 105.455 108.337 106.191C108.337 106.999 108.717 107.628 109.477 108.079C110.237 108.53 111.424 109.017 113.038 109.539C114.653 110.085 115.959 110.607 116.956 111.106C117.977 111.605 118.855 112.329 119.591 113.278C120.327 114.228 120.695 115.451 120.695 116.946C120.695 118.371 120.327 119.665 119.591 120.828C118.879 121.992 117.834 122.917 116.457 123.606C115.08 124.294 113.454 124.639 111.578 124.639ZM130.532 104.268V109.325H138.688V114.026H130.532V119.511H139.756V124.389H124.443V99.3895H139.756V104.268H130.532Z" fill="#141414"/>
</g>
<defs>
<filter id="filter0_i_240_528" x="0.078125" y="0.94873" width="173.158" height="177.333" filterUnits="userSpaceOnUse" color-interpolation-filters="sRGB">
<feFlood flood-opacity="0" result="BackgroundImageFix"/>
<feBlend mode="normal" in="SourceGraphic" in2="BackgroundImageFix" result="shape"/>
<feColorMatrix in="SourceAlpha" type="matrix" values="0 0 0 0 0 0 0 0 0 0 0 0 0 0 0 0 0 0 127 0" result="hardAlpha"/>
<feOffset dy="4.45155"/>
<feGaussianBlur stdDeviation="4.45155"/>
<feComposite in2="hardAlpha" operator="arithmetic" k2="-1" k3="1"/>
<feColorMatrix type="matrix" values="0 0 0 0 1 0 0 0 0 1 0 0 0 0 1 0 0 0 0.6 0"/>
<feBlend mode="normal" in2="shape" result="effect1_innerShadow_240_528"/>
</filter>
</defs>
</svg>
