<svg width="109" height="109" viewBox="0 0 109 109" fill="none" xmlns="http://www.w3.org/2000/svg">
<g filter="url(#filter0_di_240_507)">
<rect x="14.1025" y="9.54248" width="81.3559" height="81.3559" rx="22.2578" fill="#FFEB3B" shape-rendering="crispEdges"/>
<path d="M49.8248 44.5485V42.4668C49.1021 42.3524 48.3721 42.2897 47.6405 42.2792C40.557 42.2641 34.2858 46.8536 32.1587 53.6089C30.0315 60.3642 32.5424 67.7178 38.3566 71.7626C36.2245 69.4812 34.7984 66.6315 34.2505 63.5576C33.7026 60.4837 34.0562 57.3169 35.2687 54.4395C36.4812 51.5621 38.5008 49.0971 41.0836 47.342C43.6665 45.5869 46.7022 44.6168 49.8244 44.5487L49.8248 44.5485Z" fill="#25F4EE"/>
<path d="M50.217 68.1286C54.1774 68.1232 57.4328 65.0038 57.6062 61.0478V25.7463H64.0565C63.9248 25.0087 63.862 24.2604 63.8689 23.5111L55.0462 23.5111V58.7786C54.8995 62.7546 51.6363 65.904 47.657 65.9104C46.4678 65.9004 45.298 65.608 44.244 65.0574C44.9272 66.0037 45.8243 66.7751 46.8623 67.3089C47.9003 67.8426 49.0498 68.1235 50.217 68.1286ZM76.1045 37.7237V35.7616C73.7306 35.7625 71.4093 35.0622 69.4322 33.7484C71.1653 35.763 73.5076 37.1585 76.1045 37.7237Z" fill="#25F4EE"/>
<path d="M69.4331 33.7487C67.4853 31.5312 66.4116 28.6806 66.4126 25.7294H64.0574C64.3616 27.3611 64.9951 28.9137 65.9194 30.2925C66.8436 31.6712 68.0392 32.8472 69.4331 33.7487ZM47.6409 51.1009C45.9891 51.1093 44.3875 51.6695 43.0908 52.6926C41.7941 53.7156 40.8766 55.1427 40.4843 56.7469C40.092 58.3512 40.2473 60.0405 40.9256 61.5464C41.6038 63.0522 42.7661 64.2882 44.2277 65.0577C43.4286 63.9545 42.9501 62.652 42.845 61.294C42.7399 59.936 43.0123 58.5754 43.6321 57.3625C44.252 56.1495 45.1951 55.1315 46.3573 54.421C47.5195 53.7104 48.8556 53.3348 50.2179 53.3359C50.9585 53.3456 51.694 53.4608 52.402 53.6782V44.7025C51.6789 44.5942 50.9491 44.5372 50.2179 44.532H49.8252V51.3567C49.1134 51.1658 48.3776 51.0796 47.6409 51.1009Z" fill="#FE2C55"/>
<path d="M76.1049 37.7239V44.5488C71.7101 44.5403 67.4294 43.1494 63.8692 40.5733V58.5056C63.8503 67.4536 56.5899 74.6977 47.6403 74.6977C44.3165 74.7036 41.0727 73.6783 38.3564 71.763C40.5714 74.1449 43.4525 75.8048 46.6244 76.5263C49.7963 77.2478 53.112 76.9976 56.1396 75.8082C59.1673 74.6188 61.7665 72.5453 63.5987 69.8579C65.431 67.1705 66.4113 63.9937 66.412 60.7413V42.8598C69.9842 45.419 74.2701 46.7916 78.6647 46.7841V37.9963C77.8043 37.9937 76.9465 37.9024 76.1049 37.7239Z" fill="#FE2C55"/>
<path d="M63.8695 58.5054V40.5731C67.4406 43.1346 71.7273 44.5075 76.1222 44.4974V37.6726C73.5258 37.1244 71.178 35.7471 69.4328 33.7484C68.0389 32.8469 66.8434 31.6709 65.9191 30.2921C64.9949 28.9133 64.3613 27.3607 64.0571 25.729H57.6069V61.0482C57.5441 62.5856 57.0038 64.0653 56.0613 65.2815C55.1187 66.4978 53.8205 67.3903 52.3473 67.835C50.874 68.2797 49.2988 68.2544 47.8405 67.7628C46.3822 67.2712 45.1134 66.3376 44.2102 65.0918C42.7484 64.3224 41.5858 63.0865 40.9074 61.5805C40.2289 60.0746 40.0735 58.3851 40.4659 56.7806C40.8582 55.1762 41.7758 53.749 43.0727 52.726C44.3697 51.7029 45.9714 51.1427 47.6234 51.1345C48.3643 51.1412 49.1002 51.2562 49.8077 51.4759V44.6509C46.6688 44.7041 43.6132 45.6694 41.0134 47.4289C38.4136 49.1884 36.382 51.6662 35.1663 54.5601C33.9507 57.4541 33.6034 60.6392 34.1669 63.727C34.7305 66.8149 36.1804 69.6721 38.34 71.9503C41.0829 73.8025 44.3313 74.762 47.6406 74.6975C56.5902 74.6975 63.8506 67.4534 63.8695 58.5054Z" fill="black"/>
</g>
<defs>
<filter id="filter0_di_240_507" x="0.747889" y="0.63938" width="108.065" height="108.065" filterUnits="userSpaceOnUse" color-interpolation-filters="sRGB">
<feFlood flood-opacity="0" result="BackgroundImageFix"/>
<feColorMatrix in="SourceAlpha" type="matrix" values="0 0 0 0 0 0 0 0 0 0 0 0 0 0 0 0 0 0 127 0" result="hardAlpha"/>
<feOffset dy="4.45155"/>
<feGaussianBlur stdDeviation="6.67733"/>
<feComposite in2="hardAlpha" operator="out"/>
<feColorMatrix type="matrix" values="0 0 0 0 1 0 0 0 0 0.921569 0 0 0 0 0.231373 0 0 0 0.2 0"/>
<feBlend mode="normal" in2="BackgroundImageFix" result="effect1_dropShadow_240_507"/>
<feBlend mode="normal" in="SourceGraphic" in2="effect1_dropShadow_240_507" result="shape"/>
<feColorMatrix in="SourceAlpha" type="matrix" values="0 0 0 0 0 0 0 0 0 0 0 0 0 0 0 0 0 0 127 0" result="hardAlpha"/>
<feOffset dy="2.22578"/>
<feGaussianBlur stdDeviation="1.11289"/>
<feComposite in2="hardAlpha" operator="arithmetic" k2="-1" k3="1"/>
<feColorMatrix type="matrix" values="0 0 0 0 1 0 0 0 0 1 0 0 0 0 1 0 0 0 0.5 0"/>
<feBlend mode="normal" in2="shape" result="effect2_innerShadow_240_507"/>
</filter>
</defs>
</svg>
